<?xml version="1.0" encoding="UTF-8" standalone="no"?>
<svg
   xmlns:dc="http://purl.org/dc/elements/1.1/"
   xmlns:cc="http://creativecommons.org/ns#"
   xmlns:rdf="http://www.w3.org/1999/02/22-rdf-syntax-ns#"
   xmlns:svg="http://www.w3.org/2000/svg"
   xmlns="http://www.w3.org/2000/svg"
   xmlns:sodipodi="http://sodipodi.sourceforge.net/DTD/sodipodi-0.dtd"
   xmlns:inkscape="http://www.inkscape.org/namespaces/inkscape"
   height="16"
   width="16"
   version="1.1"
   id="svg2"
   inkscape:version="0.91 r13725"
   sodipodi:docname="prime-applet-nvidia-symbolic.svg">
  <metadata
     id="metadata10">
    <rdf:RDF>
      <cc:Work
         rdf:about="">
        <dc:format>image/svg+xml</dc:format>
        <dc:type
           rdf:resource="http://purl.org/dc/dcmitype/StillImage" />
      </cc:Work>
    </rdf:RDF>
  </metadata>
  <defs
     id="defs8" />
  <sodipodi:namedview
     pagecolor="#ffffff"
     bordercolor="#666666"
     borderopacity="1"
     objecttolerance="10"
     gridtolerance="10"
     guidetolerance="10"
     inkscape:pageopacity="0"
     inkscape:pageshadow="2"
     inkscape:window-width="1920"
     inkscape:window-height="1026"
     id="namedview6"
     showgrid="true"
     inkscape:zoom="22.627417"
     inkscape:cx="16.695587"
     inkscape:cy="19.868363"
     inkscape:window-x="0"
     inkscape:window-y="27"
     inkscape:window-maximized="1"
     inkscape:current-layer="svg2">
    <inkscape:grid
       type="xygrid"
       id="grid4144" />
  </sodipodi:namedview>
  <path
     inkscape:connector-curvature="0"
     style="fill:#bebebe;fill-opacity:1"
     d="m 1.6348998,6.9252196 c 0,0 1.44656,-2.1503999 4.33494,-2.3727999 l 0,-0.7801601 c -3.19931,0.25888 -5.96971001,2.9888 -5.96971001,2.9888 0,0 1.56917001,4.5701294 5.96971001,4.9885294 l 0,-0.82923 c -3.22934,-0.40933 -4.33494,-3.9951994 -4.33494,-3.9951994 z m 4.33494,2.3459704 0,0.75947 c -2.44064,-0.4384001 -3.11814,-2.9945104 -3.11814,-2.9945104 0,0 1.17184,-1.30795 3.11814,-1.5199999 l 0,0.83328 c -0.001,0 -0.002,-4.3e-4 -0.004,-4.3e-4 -1.02133,-0.1235199 -1.81941,0.8378701 -1.81941,0.8378701 0,0 0.44731,1.6186703 1.82325,2.0842703 m 0,-6.9378203 0,1.43894 c 0.094,-0.007 0.1879001,-0.0133 0.2823501,-0.0165 3.63733,-0.12357 6.0071501,3.00534 6.0071501,3.00534 0,0 -2.7219201,3.3346102 -5.5578701,3.3346102 -0.25973,0 -0.50304,-0.0243 -0.7317301,-0.0651 l 0,0.88976 c 0.1955701,0.0251 0.3982401,0.0397 0.6096001,0.0397 2.63893,0 4.5472001,-1.3578701 6.3952001,-2.9648002 0.30629,0.2472003 1.56053,0.8485303 1.81845,1.1118403 C 13.03582,10.58908 8.9410999,11.78375 6.6196599,11.78375 c -0.22374,0 -0.43862,-0.0137 -0.6498701,-0.0341 l 0,1.25035 10.0300802,0 0,-10.6666703 -10.0304002,0 z m 0,3.18283 0,-0.9636302 c 0.093,-0.007 0.1866701,-0.0116 0.2823501,-0.0147 2.61547,-0.0828 4.3315191,2.2645301 4.3315191,2.2645301 0,0 -1.8534391,2.5932802 -3.8406391,2.5932802 -0.28603,0 -0.5424,-0.0464 -0.7732301,-0.1245299 l 0,-2.9216604 c 1.0182401,0.12395 1.2232001,0.57707 1.8353601,1.6051801 l 1.3615,-1.15659 c 0,0 -0.99387,-1.31328 -2.66923,-1.31328 -0.18213,0 -0.35637,0.0128 -0.5274701,0.0314"
     id="path4-6" />
</svg>
